<mxfile host="app.diagrams.net" modified="2022-09-05T09:31:45.132Z" agent="5.0 (Macintosh; Intel Mac OS X 10_15_7) AppleWebKit/537.36 (KHTML, like Gecko) Chrome/105.0.0.0 Safari/537.36" etag="0KaSQvqWR1c5LSCd2N-W" version="20.2.7" type="github">
  <diagram id="ZJASKN7DDrknPDvYkwZZ" name="第 1 页">
    <mxGraphModel dx="1977" dy="555" grid="1" gridSize="10" guides="1" tooltips="1" connect="1" arrows="1" fold="1" page="1" pageScale="1" pageWidth="827" pageHeight="1169" math="0" shadow="0">
      <root>
        <mxCell id="0" />
        <mxCell id="1" parent="0" />
        <mxCell id="ohJZKZpeTWqc7yXutscQ-5" style="edgeStyle=orthogonalEdgeStyle;curved=1;orthogonalLoop=1;jettySize=auto;html=1;exitX=0.5;exitY=1;exitDx=0;exitDy=0;entryX=0.008;entryY=0.633;entryDx=0;entryDy=0;entryPerimeter=0;" edge="1" parent="1" source="ohJZKZpeTWqc7yXutscQ-1" target="ohJZKZpeTWqc7yXutscQ-3">
          <mxGeometry relative="1" as="geometry" />
        </mxCell>
        <mxCell id="ohJZKZpeTWqc7yXutscQ-15" style="edgeStyle=orthogonalEdgeStyle;curved=1;orthogonalLoop=1;jettySize=auto;html=1;exitX=0;exitY=0;exitDx=0;exitDy=0;" edge="1" parent="1" source="ohJZKZpeTWqc7yXutscQ-1">
          <mxGeometry relative="1" as="geometry">
            <mxPoint x="20" y="250" as="targetPoint" />
          </mxGeometry>
        </mxCell>
        <mxCell id="ohJZKZpeTWqc7yXutscQ-1" value="工单&lt;br&gt;数据模型" style="ellipse;whiteSpace=wrap;html=1;aspect=fixed;" vertex="1" parent="1">
          <mxGeometry x="90" y="300" width="120" height="120" as="geometry" />
        </mxCell>
        <mxCell id="ohJZKZpeTWqc7yXutscQ-3" value="角色&lt;br&gt;组用户" style="rounded=1;whiteSpace=wrap;html=1;fillColor=#dae8fc;strokeColor=#6c8ebf;" vertex="1" parent="1">
          <mxGeometry x="280" y="440" width="120" height="60" as="geometry" />
        </mxCell>
        <mxCell id="ohJZKZpeTWqc7yXutscQ-6" value="组成员管理" style="rounded=1;whiteSpace=wrap;html=1;fillColor=#dae8fc;strokeColor=#6c8ebf;" vertex="1" parent="1">
          <mxGeometry x="280" y="310" width="120" height="60" as="geometry" />
        </mxCell>
        <mxCell id="ohJZKZpeTWqc7yXutscQ-7" value="" style="endArrow=classic;startArrow=classic;html=1;curved=1;entryX=0.5;entryY=1;entryDx=0;entryDy=0;exitX=0.5;exitY=0;exitDx=0;exitDy=0;" edge="1" parent="1" source="ohJZKZpeTWqc7yXutscQ-3" target="ohJZKZpeTWqc7yXutscQ-6">
          <mxGeometry width="50" height="50" relative="1" as="geometry">
            <mxPoint x="310" y="430" as="sourcePoint" />
            <mxPoint x="360" y="380" as="targetPoint" />
          </mxGeometry>
        </mxCell>
        <mxCell id="ohJZKZpeTWqc7yXutscQ-13" style="edgeStyle=orthogonalEdgeStyle;curved=1;orthogonalLoop=1;jettySize=auto;html=1;exitX=1;exitY=0.5;exitDx=0;exitDy=0;entryX=0;entryY=0.5;entryDx=0;entryDy=0;" edge="1" parent="1" source="ohJZKZpeTWqc7yXutscQ-3" target="ohJZKZpeTWqc7yXutscQ-12">
          <mxGeometry relative="1" as="geometry" />
        </mxCell>
        <mxCell id="ohJZKZpeTWqc7yXutscQ-8" value="用户组" style="rounded=1;whiteSpace=wrap;html=1;fillColor=#dae8fc;strokeColor=#6c8ebf;" vertex="1" parent="1">
          <mxGeometry x="280" y="200" width="120" height="60" as="geometry" />
        </mxCell>
        <mxCell id="ohJZKZpeTWqc7yXutscQ-10" value="" style="endArrow=classic;startArrow=classic;html=1;curved=1;exitX=0.5;exitY=0;exitDx=0;exitDy=0;entryX=0.5;entryY=1;entryDx=0;entryDy=0;" edge="1" parent="1" source="ohJZKZpeTWqc7yXutscQ-6" target="ohJZKZpeTWqc7yXutscQ-8">
          <mxGeometry width="50" height="50" relative="1" as="geometry">
            <mxPoint x="310" y="310" as="sourcePoint" />
            <mxPoint x="360" y="260" as="targetPoint" />
          </mxGeometry>
        </mxCell>
        <mxCell id="ohJZKZpeTWqc7yXutscQ-11" value="Lsp账户" style="rounded=1;whiteSpace=wrap;html=1;fillColor=#d5e8d4;strokeColor=#82b366;" vertex="1" parent="1">
          <mxGeometry x="480" y="80" width="120" height="60" as="geometry" />
        </mxCell>
        <mxCell id="ohJZKZpeTWqc7yXutscQ-12" value="Pearl账户" style="rounded=1;whiteSpace=wrap;html=1;fillColor=#dae8fc;strokeColor=#6c8ebf;" vertex="1" parent="1">
          <mxGeometry x="480" y="200" width="120" height="60" as="geometry" />
        </mxCell>
        <mxCell id="ohJZKZpeTWqc7yXutscQ-14" value="" style="endArrow=none;dashed=1;html=1;dashPattern=1 3;strokeWidth=2;curved=1;entryX=0;entryY=0.5;entryDx=0;entryDy=0;" edge="1" parent="1" target="ohJZKZpeTWqc7yXutscQ-11">
          <mxGeometry width="50" height="50" relative="1" as="geometry">
            <mxPoint x="400" y="430" as="sourcePoint" />
            <mxPoint x="440" y="250" as="targetPoint" />
            <Array as="points">
              <mxPoint x="400" y="430" />
            </Array>
          </mxGeometry>
        </mxCell>
        <mxCell id="ohJZKZpeTWqc7yXutscQ-22" style="edgeStyle=orthogonalEdgeStyle;curved=1;orthogonalLoop=1;jettySize=auto;html=1;exitX=0.5;exitY=0;exitDx=0;exitDy=0;entryX=0.5;entryY=1;entryDx=0;entryDy=0;" edge="1" parent="1" source="ohJZKZpeTWqc7yXutscQ-16" target="ohJZKZpeTWqc7yXutscQ-18">
          <mxGeometry relative="1" as="geometry" />
        </mxCell>
        <mxCell id="ohJZKZpeTWqc7yXutscQ-16" value="物流工单" style="rounded=1;whiteSpace=wrap;html=1;fillColor=#dae8fc;strokeColor=#6c8ebf;" vertex="1" parent="1">
          <mxGeometry x="-30" y="190" width="120" height="60" as="geometry" />
        </mxCell>
        <mxCell id="ohJZKZpeTWqc7yXutscQ-18" value="物流包裹" style="rounded=1;whiteSpace=wrap;html=1;fillColor=#dae8fc;strokeColor=#6c8ebf;" vertex="1" parent="1">
          <mxGeometry x="-30" y="80" width="120" height="60" as="geometry" />
        </mxCell>
        <mxCell id="ohJZKZpeTWqc7yXutscQ-20" value="平台组管理" style="rounded=1;whiteSpace=wrap;html=1;fillColor=#dae8fc;strokeColor=#6c8ebf;" vertex="1" parent="1">
          <mxGeometry x="150" y="80" width="120" height="60" as="geometry" />
        </mxCell>
        <mxCell id="ohJZKZpeTWqc7yXutscQ-23" value="平台" style="rounded=1;whiteSpace=wrap;html=1;fillColor=#dae8fc;strokeColor=#6c8ebf;" vertex="1" parent="1">
          <mxGeometry x="40" width="120" height="50" as="geometry" />
        </mxCell>
        <mxCell id="ohJZKZpeTWqc7yXutscQ-24" value="" style="endArrow=classic;startArrow=classic;html=1;curved=1;entryX=0.5;entryY=0;entryDx=0;entryDy=0;exitX=0.5;exitY=1;exitDx=0;exitDy=0;" edge="1" parent="1" source="ohJZKZpeTWqc7yXutscQ-23" target="ohJZKZpeTWqc7yXutscQ-20">
          <mxGeometry width="50" height="50" relative="1" as="geometry">
            <mxPoint x="125" y="90" as="sourcePoint" />
            <mxPoint x="175" y="40" as="targetPoint" />
          </mxGeometry>
        </mxCell>
        <mxCell id="ohJZKZpeTWqc7yXutscQ-25" value="" style="endArrow=classic;startArrow=classic;html=1;curved=1;entryX=0.5;entryY=0;entryDx=0;entryDy=0;exitX=0.5;exitY=1;exitDx=0;exitDy=0;" edge="1" parent="1" source="ohJZKZpeTWqc7yXutscQ-20" target="ohJZKZpeTWqc7yXutscQ-8">
          <mxGeometry width="50" height="50" relative="1" as="geometry">
            <mxPoint x="220" y="200" as="sourcePoint" />
            <mxPoint x="270" y="150" as="targetPoint" />
          </mxGeometry>
        </mxCell>
        <mxCell id="ohJZKZpeTWqc7yXutscQ-26" value="" style="endArrow=classic;html=1;curved=1;entryX=0.5;entryY=1;entryDx=0;entryDy=0;exitX=0.5;exitY=0;exitDx=0;exitDy=0;" edge="1" parent="1" source="ohJZKZpeTWqc7yXutscQ-18" target="ohJZKZpeTWqc7yXutscQ-23">
          <mxGeometry width="50" height="50" relative="1" as="geometry">
            <mxPoint x="30" y="90" as="sourcePoint" />
            <mxPoint x="80" y="40" as="targetPoint" />
          </mxGeometry>
        </mxCell>
      </root>
    </mxGraphModel>
  </diagram>
</mxfile>
